<svg width="16" height="17" viewBox="0 0 16 17" fill="none" xmlns="http://www.w3.org/2000/svg">
<path fill-rule="evenodd" clip-rule="evenodd" d="M12.765 1.16231L14.71 2.74531C14.8978 2.9283 15.0031 3.17982 15.0015 3.44201C15 3.70421 14.8919 3.9545 14.702 4.13531L13.224 5.93531L8.19402 12.0723C8.10693 12.1749 7.98969 12.2473 7.85902 12.2793L5.25102 12.8793C4.90496 12.8936 4.60654 12.6384 4.56702 12.2943L4.68902 9.72131C4.69806 9.58995 4.75006 9.4652 4.83702 9.36631L9.65002 3.50131L11.345 1.43331C11.6743 0.98505 12.2938 0.866839 12.765 1.16231Z" stroke="black" stroke-width="1.5" stroke-linecap="round" stroke-linejoin="round"/>
<path d="M1 15.2413C0.585786 15.2413 0.25 15.5771 0.25 15.9913C0.25 16.4056 0.585786 16.7413 1 16.7413V15.2413ZM14.7 16.7413C15.1142 16.7413 15.45 16.4056 15.45 15.9913C15.45 15.5771 15.1142 15.2413 14.7 15.2413V16.7413ZM10.3455 3.22062C10.1904 2.83652 9.75338 2.65082 9.36928 2.80586C8.98518 2.9609 8.79948 3.39796 8.95452 3.78206L10.3455 3.22062ZM13.3893 6.66991C13.7933 6.57863 14.0468 6.17711 13.9556 5.77308C13.8643 5.36904 13.4628 5.1155 13.0587 5.20678L13.3893 6.66991ZM1 16.7413H14.7V15.2413H1V16.7413ZM8.95452 3.78206C9.18716 4.35843 9.66502 5.18012 10.3765 5.8128C11.1011 6.45718 12.133 6.95371 13.3893 6.66991L13.0587 5.20678C12.416 5.35198 11.8609 5.12551 11.3733 4.69189C10.8725 4.24656 10.5128 3.63526 10.3455 3.22062L8.95452 3.78206Z" fill="black"/>
</svg>
